<?xml version="1.0" encoding="UTF-8"?>
<!--Generator: Apple Native CoreSVG 341-->
<!DOCTYPE svg
PUBLIC "-//W3C//DTD SVG 1.1//EN"
       "http://www.w3.org/Graphics/SVG/1.1/DTD/svg11.dtd">
<svg version="1.1" xmlns="http://www.w3.org/2000/svg" xmlns:xlink="http://www.w3.org/1999/xlink" viewBox="0 0 321.25 529.75">
 <g>
  <rect height="529.75" opacity="0" width="321.25" x="0" y="0"/>
  <path d="M0 464.5C0 503.5 27.25 529.5 68 529.5L253.25 529.5C294 529.5 321.25 503.5 321.25 464.5L321.25 65C321.25 26 294 0 253.25 0L68 0C27.25 0 0 26 0 65ZM40.25 444.75L40.25 84.75L281 84.75L281 444.75ZM161 504.75C149 504.75 139.25 495 139.25 483C139.25 471.25 149 461.5 161 461.5C172.75 461.5 182.5 471.25 182.5 483C182.5 495 172.75 504.75 161 504.75ZM113.25 43.75C113.25 38 117.25 34.25 122.75 34.25L198.75 34.25C204.25 34.25 208.25 38 208.25 43.75C208.25 49.5 204.25 53 198.75 53L122.75 53C117.25 53 113.25 49.5 113.25 43.75Z" fill="white" fill-opacity="0.85"/>
 </g>
</svg>
