<?xml version="1.0" encoding="UTF-8"?>
<!--Generator: Apple Native CoreSVG 341-->
<!DOCTYPE svg
PUBLIC "-//W3C//DTD SVG 1.1//EN"
       "http://www.w3.org/Graphics/SVG/1.1/DTD/svg11.dtd">
<svg version="1.1" xmlns="http://www.w3.org/2000/svg" xmlns:xlink="http://www.w3.org/1999/xlink" viewBox="0 0 271.75 478.75">
 <g>
  <rect height="478.75" opacity="0" width="271.75" x="0" y="0"/>
  <path d="M123.75 342C141.25 342 149.25 330 149.25 314C149.25 311.25 149.25 308.25 149.25 305.5C149.75 272.5 161.5 258.75 201.5 231.25C244.5 202.25 271.75 168.75 271.75 120.5C271.75 45.5 210.75 2.5 134.75 2.5C78.25 2.5 28.75 29.25 7.5 77.5C2.25 89.25 0 100.75 0 110.25C0 124.5 8.25 134.5 23.5 134.5C36.25 134.5 44.75 127 48.5 114.75C61.25 67.25 92.75 49.25 133 49.25C181.75 49.25 220 76.75 220 120.25C220 156 197.75 176 165.75 198.5C126.5 225.75 97.75 255 97.75 299C97.75 304.25 97.75 309.5 97.75 314.75C97.75 330.75 106.5 342 123.75 342ZM123.75 478.75C143.75 478.75 159.5 462.75 159.5 443.25C159.5 423.5 143.75 407.75 123.75 407.75C104.25 407.75 88.25 423.5 88.25 443.25C88.25 462.75 104.25 478.75 123.75 478.75Z" fill="white" fill-opacity="0.85"/>
 </g>
</svg>
