<?xml version="1.0" encoding="UTF-8"?>
<!--Generator: Apple Native CoreSVG 341-->
<!DOCTYPE svg
PUBLIC "-//W3C//DTD SVG 1.1//EN"
       "http://www.w3.org/Graphics/SVG/1.1/DTD/svg11.dtd">
<svg version="1.1" xmlns="http://www.w3.org/2000/svg" xmlns:xlink="http://www.w3.org/1999/xlink" viewBox="0 0 640.75 447.75">
 <g>
  <rect height="447.75" opacity="0" width="640.75" x="0" y="0"/>
  <path d="M455.75 288C455.75 214 394.5 152.25 320.5 152.25C246.25 152.25 185 214 185 288C185 306.25 188.75 323.5 195.75 339.25L445 339.25C452 323.5 455.75 306.25 455.75 288ZM54.25 302.25L115.75 302.25C128.75 302.25 138.5 293.25 138.25 282C138 270.75 128.5 261.75 115.75 261.75L54.25 261.75C41.25 261.75 32 270.75 32 282C32 293.25 41.25 302.25 54.25 302.25ZM161.25 158C170.25 167.25 183.75 167.5 191.5 159.5C199.25 151.5 199.25 138.25 190 129.25L146.5 85.75C137.25 76.25 124.5 76.75 116.5 84.5C108.5 92.25 108.25 105.25 117.75 114.5ZM449.25 159.5C457.25 167.25 470.5 167.25 479.5 158L523 114.5C532.5 105.25 532 92.5 524.25 84.5C516.5 76.5 503.5 76.25 494.25 85.75L450.75 129.25C441.5 138.25 441.25 151.75 449.25 159.5ZM525 302.25L586.5 302.25C599.5 302.25 608.75 293.25 608.75 282C608.75 270.75 599.5 261.75 586.5 261.75L525 261.75C512.25 261.75 502.25 270.75 502.5 282C502.75 293.25 512.25 302.25 525 302.25ZM320.5 106.25C331.5 106 340.75 96.5 340.75 83.75L340.75 22.25C340.75 9.25 331.5 0 320.5 0C309.25 0 300 9.25 300 22.25L300 83.75C300 96.5 309.25 106.5 320.5 106.25Z" fill="#ffd600"/>
  <path d="M21.75 408.5L619 408.5C630.75 408.5 640.75 399.5 640.75 388.5C640.75 377.5 630.75 368.5 619 368.5L21.75 368.5C10 368.5 0 377.5 0 388.5C0 399.5 10 408.5 21.75 408.5Z" fill="white"/>
 </g>
</svg>
