<?xml version="1.0" encoding="UTF-8"?>
<!--Generator: Apple Native CoreSVG 341-->
<!DOCTYPE svg
PUBLIC "-//W3C//DTD SVG 1.1//EN"
       "http://www.w3.org/Graphics/SVG/1.1/DTD/svg11.dtd">
<svg version="1.1" xmlns="http://www.w3.org/2000/svg" xmlns:xlink="http://www.w3.org/1999/xlink" viewBox="0 0 510 510.25">
 <g>
  <rect height="510.25" opacity="0" width="510" x="0" y="0"/>
  <path d="M40.25 149C102 214.75 189 252.75 281.5 252.5C354.5 252.25 423.75 228 480.25 183.5L466 155.5C414.5 198.5 349.75 222 281.5 222.25C193 222.5 110.25 184 54.25 118ZM13.5 291.75C143.5 402.75 329.5 423.5 479.5 345L478.75 310.75C333 395 146.75 374 21 257.75ZM137.5 463.5L173.25 471.75C156.5 431.5 147.5 389 146.75 345.25C139.75 221 193.25 102.5 288.75 24.25L256.75 11.75C162 95.75 109.75 218 116.5 345.75C117 385.75 124.25 425.25 137.5 463.5ZM302.25 488.25L330.5 475.75C283.75 409.75 258.25 331.5 258.25 249.75C258.25 172.25 280.75 98.25 323 35.25L293.5 24.75C250.75 91.75 228 169.5 228 249.75C228 336 254 418.25 302.25 488.25ZM449.5 395.25L469.75 372.25C385.75 324 333.25 235.75 332 137.75C331.5 102.75 337.75 68 350.25 36L321 27.75C307.75 62.75 301.25 99.75 301.75 138C303 244.25 359.25 341.25 449.5 395.25ZM146.5 249.5C167.75 249.5 185.25 231.75 185.25 210.25C185.25 188.75 167.75 171.25 146.5 171.25C124.75 171.25 107.25 188.75 107.25 210.25C107.25 231.75 124.75 249.5 146.5 249.5ZM338 270.25C359 270.25 376.25 253 376.25 231.5C376.25 210.5 359 193.25 338 193.25C316.5 193.25 299.25 210.5 299.25 231.5C299.25 253 316.5 270.25 338 270.25ZM263.5 414.75C285 414.75 302.25 397.5 302.25 375.75C302.25 354.25 285 336.75 263.5 336.75C241.75 336.75 224.25 354.25 224.25 375.75C224.25 397.5 241.75 414.75 263.5 414.75ZM255 510C395.75 510 510 395.75 510 255C510 114.25 395.75 0 255 0C114.25 0 0 114.25 0 255C0 395.75 114.25 510 255 510ZM255 476C133 476 34 377 34 255C34 133 133 34 255 34C377 34 476 133 476 255C476 377 377 476 255 476Z" fill="white" fill-opacity="0.85"/>
 </g>
</svg>
