<?xml version="1.0" encoding="UTF-8"?>
<!--Generator: Apple Native CoreSVG 341-->
<!DOCTYPE svg
PUBLIC "-//W3C//DTD SVG 1.1//EN"
       "http://www.w3.org/Graphics/SVG/1.1/DTD/svg11.dtd">
<svg version="1.1" xmlns="http://www.w3.org/2000/svg" xmlns:xlink="http://www.w3.org/1999/xlink" viewBox="0 0 566.893 476.69">
 <g>
  <rect height="476.69" opacity="0" width="566.893" x="0" y="0"/>
  <path d="M20.9301 224.053C102.315 252.888 190.135 265.845 283.36 265.845C376.68 265.845 464.578 252.888 545.963 224.053L545.325 191.8C467.568 222.032 380.48 235.93 283.36 235.93C186.413 235.93 99.325 222.032 21.4901 191.162ZM245.385 309.39L321.43 309.39C337.923 309.39 347.475 300.105 347.475 283.768L347.475 249.608L219.418 249.608L219.418 283.768C219.418 300.105 228.97 309.39 245.385 309.39ZM71.205 476.44L495.688 476.44C543.33 476.44 566.893 453.455 566.893 406.003L566.893 159.343C566.893 111.968 543.33 88.905 495.688 88.905L71.205 88.905C23.735 88.905 0 111.968 0 159.343L0 406.003C0 453.455 23.735 476.44 71.205 476.44ZM71.4725 445.895C44.2601 445.895 30.9501 432.775 30.9501 404.7L30.9501 160.645C30.9501 132.743 44.2601 119.45 71.4725 119.45L495.343 119.45C522.633 119.45 535.943 132.743 535.943 160.645L535.943 404.7C535.943 432.775 522.633 445.895 495.343 445.895ZM160.408 106.083L190.323 106.083L190.323 59.1976C190.323 39.6551 202.348 28.4401 222.933 28.4401L343.883 28.4401C364.545 28.4401 376.32 39.6551 376.32 59.1976L376.32 105.815L406.313 105.815L406.313 61.0176C406.313 20.295 383.655 0 343.133 0L223.433 0C184.713 0 160.408 20.295 160.408 61.0176Z" fill="white" fill-opacity="0.85"/>
 </g>
</svg>
