<?xml version="1.0" encoding="UTF-8"?>
<!--Generator: Apple Native CoreSVG 341-->
<!DOCTYPE svg
PUBLIC "-//W3C//DTD SVG 1.1//EN"
       "http://www.w3.org/Graphics/SVG/1.1/DTD/svg11.dtd">
<svg version="1.1" xmlns="http://www.w3.org/2000/svg" xmlns:xlink="http://www.w3.org/1999/xlink" viewBox="0 0 494.52 608.242">
 <g>
  <rect height="608.242" opacity="0" width="494.52" x="0" y="0"/>
  <path d="M465.48 131.429L465.48 511.936C465.48 560.776 440.72 585.536 392.398 585.536L206.944 585.536C256.357 580.633 307.094 572.713 360.408 559.903C406.663 548.271 431.23 519.103 431.23 466.588L431.23 86.6385C431.23 78.7204 430.55 71.2717 429.245 64.325C453.28 74.6425 465.48 97.1456 465.48 131.429Z" fill="white" fill-opacity="0.85"/>
  <path d="M28.9625 506.821C28.9625 544.973 53.2501 565.846 93.8426 564.026C178.153 560.921 261.393 553.713 353.328 531.881C386.968 523.586 402.268 505.843 402.268 466.588L402.268 86.6385C402.268 43.4759 377.3 21.8609 335.345 30.8634C261.393 45.6059 178.153 57.176 90.9426 60.6435C52.9226 62.291 28.9625 83.431 28.9625 123.799ZM59.9126 501.818L59.9126 123.341C59.9126 101.566 73.2226 91.6885 94.2976 90.9985C178.748 88.0485 260.798 76.556 333.637 61.986C356.965 57.356 371.395 68.736 371.395 91.4685L371.395 465.398C371.395 488.553 361.708 499.423 341.218 503.881C260.798 522.686 178.748 530.143 95.2051 533.076C73.2226 533.766 59.9126 522.146 59.9126 501.818Z" fill="white" fill-opacity="0.85"/>
  <path d="M119.873 181.049C190.313 178.021 249.405 169.434 311.608 156.511C320.473 154.631 323.3 150.121 323.3 144.283C323.3 137.928 318.385 132.341 309.788 134.048C249.405 146.453 190.313 155.213 119.873 158.163C111.965 158.681 108.008 163.596 108.008 169.951C108.008 176.401 112.923 181.316 119.873 181.049ZM119.873 264.339C190.313 261.311 249.405 252.551 311.608 239.801C320.473 237.921 323.3 233.411 323.3 227.573C323.3 221.218 318.385 215.631 309.788 217.338C249.405 229.743 190.313 238.503 119.873 241.453C111.965 241.971 108.008 246.886 108.008 253.068C108.008 259.518 112.923 264.606 119.873 264.339ZM119.873 347.628C190.313 344.601 249.405 335.841 311.608 323.091C320.473 321.211 323.3 316.701 323.3 310.863C323.3 304.508 318.385 298.921 309.788 300.628C249.405 313.033 190.313 321.793 119.873 324.743C111.965 325.261 108.008 330.176 108.008 336.358C108.008 342.808 112.923 347.896 119.873 347.628ZM119.873 430.746C158.703 429.193 186.263 425.503 215.898 421.641C222.675 420.528 226.633 415.346 226.633 409.853C226.633 403.748 221.64 397.816 212.948 399.273C185.305 402.868 158.263 406.386 119.873 407.861C111.965 408.378 108.008 413.293 108.008 419.476C108.008 425.926 112.923 431.013 119.873 430.746Z" fill="white" fill-opacity="0.85"/>
 </g>
</svg>
