<?xml version="1.0" encoding="UTF-8"?>
<!--Generator: Apple Native CoreSVG 341-->
<!DOCTYPE svg
PUBLIC "-//W3C//DTD SVG 1.1//EN"
       "http://www.w3.org/Graphics/SVG/1.1/DTD/svg11.dtd">
<svg version="1.1" xmlns="http://www.w3.org/2000/svg" xmlns:xlink="http://www.w3.org/1999/xlink" viewBox="0 0 501.553 501.725">
 <g>
  <rect height="501.725" opacity="0" width="501.553" x="0" y="0"/>
  <path d="M250.738 501.475C389.24 501.475 501.553 389.163 501.553 250.738C501.553 112.235 389.24 0 250.738 0C112.313 0 0 112.235 0 250.738C0 389.163 112.313 501.475 250.738 501.475ZM250.738 469.05C130.06 469.05 32.4251 371.415 32.4251 250.738C32.4251 129.983 130.06 32.3476 250.738 32.3476C371.493 32.3476 469.127 129.983 469.127 250.738C469.127 371.415 371.493 469.05 250.738 469.05ZM420.498 413.705L420.058 411.575C406.18 375.833 341.033 334.42 250.738 334.42C160.77 334.42 95.6225 375.678 81.4175 411.093L80.9 413.705C125.203 458.515 196.098 485.755 250.815 485.755C305.86 485.755 375.075 459.075 420.498 413.705ZM250.738 291.61C298.833 291.878 335.945 250.955 335.945 197.438C335.945 147.248 298.35 105.343 250.738 105.343C203.048 105.343 165.203 147.248 165.453 197.438C165.625 250.955 202.738 291.265 250.738 291.61Z" fill="white" fill-opacity="0.85"/>
 </g>
</svg>
