<?xml version="1.0" encoding="UTF-8"?>
<!--Generator: Apple Native CoreSVG 341-->
<!DOCTYPE svg
PUBLIC "-//W3C//DTD SVG 1.1//EN"
       "http://www.w3.org/Graphics/SVG/1.1/DTD/svg11.dtd">
<svg version="1.1" xmlns="http://www.w3.org/2000/svg" xmlns:xlink="http://www.w3.org/1999/xlink" viewBox="0 0 379.743 380.533">
 <g>
  <rect height="380.533" opacity="0" width="379.743" x="0" y="0"/>
  <path d="M363.101 3.75144L2.89146 363.961C-0.928735 367.781-0.998743 373.822 2.89146 377.642C6.78165 381.462 12.822 381.462 16.6422 377.642L376.852 17.4322C380.672 13.612 380.742 7.57163 376.852 3.75144C372.962-0.138757 366.991-0.208765 363.101 3.75144ZM376.852 363.961L16.6422 3.75144C12.822-0.138757 6.71165-0.208765 2.89146 3.75144C-0.928735 7.64164-0.928735 13.612 2.89146 17.4322L363.101 377.642C366.921 381.462 373.032 381.532 376.852 377.642C380.672 373.752 380.672 367.781 376.852 363.961Z" fill="white" fill-opacity="0.85"/>
 </g>
</svg>
